<?xml version="1.0" encoding="utf-8"?>
<!-- Generator: Adobe Illustrator 19.2.1, SVG Export Plug-In . SVG Version: 6.00 Build 0)  -->
<svg version="1.1" id="Layer_1" xmlns="http://www.w3.org/2000/svg" xmlns:xlink="http://www.w3.org/1999/xlink" x="0px" y="0px"
	 viewBox="0 0 581 640" style="enable-background:new 0 0 581 640;" xml:space="preserve">
<g>
	<path class="st0" d="M175,412.8c-6.1-14.5-16.6-2-51.7-13.7c-35.2-11.7-23.4-46.1-21-49.7c2.4-3.6,1.2-13.7-5.3-20.2
		c-6.5-6.5-2.8-15.8,0.4-17c3.2-1.2,1.2-5.7,1.2-5.7c-2.4-1.6-1.2-10.1,2.4-13.7c3.6-3.7,5.7-16.6,5.7-19.8c0-3.2-6.1-2.4-11.7-4.8
		c-5.7-2.4-8.3-9.2-4.8-19.6c3.5-10.4,15.3-25.7,21.6-35.5c6.3-9.7-6.3-17.4-9-19.5c-2.8-2.1-0.7-14.6,1.4-29.2
		c1.6-11.2,11.3-19,19.2-26c3.8-3.4,14.5-9.8,11.8-14.6c-2.5-4.5-8.6-5.3-10-11c-1.2-5,0.3-14.5,5.3-16.9c-0.2-2.6-3.3-3.9-2.8-6.7
		c0.7-3.6,7-2.8,9-5.3c1.2-1.5,0.5-3.5,1.1-5.4c1.7-6.3,7.2-8.2,13.5-7.9c0.8-2.3,1.4-4.1,2.4-5.5H35.5v510h51.7
		c19.6-24.1,43.3-49.7,64.8-72.4C197.3,454.5,181.1,427.4,175,412.8z"/>
	<path class="st0" d="M545.5,65h-217c2.6,1.6,5.3,3.4,7.4,5c4,3,7.1,7.1,11.3,9.8c2.7,1.7,4.9,0.9,7.7,2.1c3,1.3,4.1,5.3,6.4,7.2
		c1.8,1.5,3.7,1.9,5.6,3.5c3.6,3,5.3,8.1,9.4,10.6c-2.4,4.1,4,9.2,5.9,12.5c1.2,2.1,1.9,4.5,3.1,6.4c1.2,1.8,3.8,2.5,5.1,3.9
		c3.8,4.1,7.9,11.9,9.9,17c1.9,4.8,0.2,8.7,0.5,13.1c0.3,3.3,2.8,5,4.1,7.8c1.5,3.3,2.3,7.1,3.8,10.6c1.9,4.3,1.9,8.7,2.6,12.8
		c0.8,4.8,4.1,9.8,2.8,14.5c-0.6,2.3-2.5,4.4-2.4,7.1c0.1,3.1,3,7.4,3.9,10.3c-6.2,4.7-1,13.4,0.3,18.7c0.6,2.2,0.4,4.8,1,7
		c0.8,2.7,2.5,4.7,2.8,7.4c0.6,5.2-3.7,7.2-5.8,11c-1,1.8-1,3.9-1.5,5.8c-1.6,5.8-2.8,11.3-4,17.5c-1.2,6-1.7,2.4-4.9,5.8
		c-0.5,0.5,0,2-0.3,2.6c-0.7,1.4-2,3-3,4.3c-3.6,5.2-7.7,17.5-14.6,20.3c-2,0.8-3.7,0.7-5.5,1.6c-1.6,0.8-1.7,2-4.2,2.4
		c-2.5,0.4-4.5-0.4-6.7,0.8c-6.8,3.8-6.9,14.6-6.6,21.4c0.4,7.3,2.8,12.9,11.7,19c8.9,6.1,36.8,19.8,65.9,41.2
		c52.1,31.9,73.1,115.5,81.3,169h23.6V65z"/>
</g>
</svg>
